<?xml version="1.0" encoding="UTF-8"?>
<svg xmlns="http://www.w3.org/2000/svg" xmlns:xlink="http://www.w3.org/1999/xlink" viewBox="0 0 96 96" width="96px" height="96px">
<g id="surface71270240">
<path style=" stroke:none;fill-rule:nonzero;fill:rgb(100%,100%,100%);fill-opacity:1;" d="M 78.71875 7.679688 L 17.28125 7.679688 C 11.980469 7.679688 7.679688 11.980469 7.679688 17.28125 L 7.679688 78.71875 C 7.679688 84.019531 11.980469 88.320312 17.28125 88.320312 L 78.71875 88.320312 C 84.019531 88.320312 88.320312 84.019531 88.320312 78.71875 L 88.320312 17.28125 C 88.320312 11.980469 84.019531 7.679688 78.71875 7.679688 Z M 71.039062 36.480469 L 67.199219 36.480469 C 63.089844 36.480469 61.441406 37.441406 61.441406 40.320312 L 61.441406 46.078125 L 71.039062 46.078125 L 69.121094 55.679688 L 61.441406 55.679688 L 61.441406 84.480469 L 51.839844 84.480469 L 51.839844 55.679688 L 44.160156 55.679688 L 44.160156 46.078125 L 51.839844 46.078125 L 51.839844 40.320312 C 51.839844 32.640625 55.679688 26.878906 63.359375 26.878906 C 68.929688 26.878906 71.039062 28.800781 71.039062 28.800781 Z M 71.039062 36.480469 "/>
</g>
</svg>
