<?xml version="1.0" encoding="UTF-8"?>
<svg xmlns="http://www.w3.org/2000/svg" xmlns:xlink="http://www.w3.org/1999/xlink" viewBox="0 0 96 96" width="96px" height="96px">
<g id="surface71348176">
<path style=" stroke:none;fill-rule:nonzero;fill:rgb(100%,100%,100%);fill-opacity:1;" d="M 47.730469 18 C 20.160156 18 18 20.160156 18 47.730469 L 18 48.269531 C 18 75.839844 20.160156 78 47.730469 78 L 48.269531 78 C 75.839844 78 78 75.839844 78 48.269531 L 78 48 C 78 20.179688 75.820312 18 48 18 Z M 42 24 L 54 24 C 70.695312 24 72 25.304688 72 42 L 72 54 C 72 70.695312 70.695312 72 54 72 L 42 72 C 25.304688 72 24 70.695312 24 54 L 24 42 C 24 25.304688 25.304688 24 42 24 Z M 62.992188 30 C 61.332031 30.003906 59.996094 31.351562 60 33.007812 C 60.003906 34.667969 61.351562 36.003906 63.007812 36 C 64.667969 35.996094 66.003906 34.648438 66 32.992188 C 65.996094 31.332031 64.648438 29.996094 62.992188 30 Z M 47.964844 33 C 39.683594 33.019531 32.980469 39.753906 33 48.035156 C 33.019531 56.316406 39.753906 63.019531 48.035156 63 C 56.316406 62.980469 63.019531 56.246094 63 47.964844 C 62.980469 39.683594 56.246094 32.980469 47.964844 33 Z M 47.980469 39 C 52.949219 38.988281 56.988281 43.011719 57 47.980469 C 57.011719 52.949219 52.988281 56.988281 48.019531 57 C 43.050781 57.011719 39.011719 52.992188 39 48.019531 C 38.988281 43.050781 43.011719 39.011719 47.980469 39 Z M 47.980469 39 "/>
</g>
</svg>
