<?xml version="1.0" encoding="UTF-8"?>
<svg xmlns="http://www.w3.org/2000/svg" xmlns:xlink="http://www.w3.org/1999/xlink" viewBox="0 0 48 48" width="48px" height="48px">
<g id="surface92146552">
<path style=" stroke:none;fill-rule:nonzero;fill:rgb(100%,100%,100%);fill-opacity:1;" d="M 11.5 6 C 8.480469 6 6 8.480469 6 11.5 L 6 36.5 C 6 39.519531 8.480469 42 11.5 42 L 36.5 42 C 39.519531 42 42 39.519531 42 36.5 L 42 11.5 C 42 8.480469 39.519531 6 36.5 6 Z M 11.5 9 L 36.5 9 C 37.898438 9 39 10.101562 39 11.5 L 39 36.5 C 39 37.898438 37.898438 39 36.5 39 L 11.5 39 C 10.101562 39 9 37.898438 9 36.5 L 9 11.5 C 9 10.101562 10.101562 9 11.5 9 Z M 26.433594 13.023438 C 25.640625 13.058594 25.011719 13.707031 25 14.5 L 25 28 C 25 30.226562 23.226562 32 21 32 C 18.773438 32 17 30.226562 17 28 C 17 25.773438 18.773438 24 21 24 C 21.539062 24.007812 22.042969 23.722656 22.316406 23.257812 C 22.589844 22.789062 22.589844 22.210938 22.316406 21.742188 C 22.042969 21.277344 21.539062 20.992188 21 21 C 17.152344 21 14 24.152344 14 28 C 14 31.847656 17.152344 35 21 35 C 24.847656 35 28 31.847656 28 28 L 28 20.335938 C 29.269531 21.316406 30.78125 22 32.5 22 C 33.039062 22.007812 33.542969 21.722656 33.816406 21.257812 C 34.089844 20.789062 34.089844 20.210938 33.816406 19.742188 C 33.542969 19.277344 33.039062 18.992188 32.5 19 C 29.996094 19 28 17.003906 28 14.5 C 27.992188 14.09375 27.824219 13.710938 27.53125 13.429688 C 27.234375 13.152344 26.839844 13.007812 26.433594 13.023438 Z M 26.433594 13.023438 "/>
</g>
</svg>
